Coordinates
version=1
nRows=32
nColumns=22
inDegrees=yes

Units are S.I. units (second, meters, Newtons, ...)
If the header above contains a line with 'inDegrees', this indicates whether rotational values are in degrees (yes) or radians (no).

endheader
time	pelvis_tilt	pelvis_list	pelvis_rotation	pelvis_tx	pelvis_ty	pelvis_tz	hip_flexion_r	hip_adduction_r	hip_rotation_r	knee_angle_r	ankle_angle_r	subtalar_angle_r	hip_flexion_l	hip_adduction_l	hip_rotation_l	knee_angle_l	ankle_angle_l	subtalar_angle_l	lumbar_extension	lumbar_bending	lumbar_rotation
      3.70000000	     -1.02553738	      1.41641837	    178.30065636	      0.03631593	      1.04971256	     -0.59716176	     -9.10453320	     -2.08910667	    -14.20063990	    -17.64926714	     19.49332525	      5.39422404	     24.47513747	     -1.83906328	    -25.51490019	    -16.72613122	      5.49191379	     -7.66302984	     -6.99963494	     -2.69806048	      0.47897058
      3.71000000	     -0.97769651	      1.16933011	    178.58336681	      0.02682121	      1.04858196	     -0.59520221	     -9.39221924	     -2.48417114	    -14.36464447	    -18.14636341	     19.41716556	      5.99516220	     24.04360681	     -1.31514287	    -25.34996814	    -15.55259908	      5.40953561	     -7.89981754	     -6.80444525	     -2.98681433	      0.54154592
      3.72000000	     -0.97125515	      0.89256957	    178.83748615	      0.01699599	      1.04768942	     -0.59313278	     -9.72674154	     -2.92112071	    -14.42361913	    -18.66783521	     19.21492536	      6.73399449	     23.56101086	     -0.80307111	    -25.25138349	    -14.72374106	      5.24630373	     -8.21996168	     -6.61845071	     -3.32032047	      0.59747924
      3.73000000	     -0.98428631	      0.58758327	    179.07225788	      0.00686795	      1.04701484	     -0.59092299	    -10.06330167	     -3.40381062	    -14.41892238	    -19.25136630	     18.89993342	      7.55420188	     23.05674488	     -0.29955083	    -25.26446721	    -14.22074275	      4.96169901	     -8.59727166	     -6.41763313	     -3.69715648	      0.67026191
      3.74000000	     -1.00999747	      0.24102754	    179.29837028	     -0.00351002	      1.04657457	     -0.58851139	    -10.37391837	     -3.94921367	    -14.34601054	    -19.93056971	     18.45788865	      8.45471453	     22.53771438	      0.22491267	    -25.39851420	    -13.99089928	      4.53403774	     -9.02419758	     -6.20291098	     -4.12244828	      0.75597715
      3.75000000	     -1.05074217	     -0.12483127	    179.53498805	     -0.01410842	      1.04642579	     -0.58585254	    -10.66219850	     -4.52522238	    -14.18008660	    -20.69696134	     17.85744635	      9.50234537	     21.98023958	      0.77458597	    -25.61392416	    -13.92292453	      3.95389737	     -9.52953230	     -5.98140008	     -4.56261871	      0.81953540
      3.76000000	     -1.07075150	     -0.53147189	    179.78205872	     -0.02484879	      1.04653382	     -0.58290063	    -10.84730826	     -5.16695249	    -13.95167377	    -21.61994547	     17.10017661	     10.58086616	     21.41146788	      1.39192269	    -25.83731984	    -13.92436974	      3.29346653	    -10.05253293	     -5.72044526	     -5.03652009	      0.90654772
      3.77000000	     -1.08962534	     -0.93824629	    180.06599818	     -0.03565019	      1.04697177	     -0.57966666	    -10.94769012	     -5.81233220	    -13.60811749	    -22.69125265	     16.15090935	     11.80038737	     20.80028452	      2.05940915	    -25.95120955	    -13.90425539	      2.61073199	    -10.65046448	     -5.45748865	     -5.50043664	      0.95714603
      3.78000000	     -1.07711616	     -1.35217850	    180.38007246	     -0.04644405	      1.04768143	     -0.57611773	    -10.89525460	     -6.48132513	    -13.17288082	    -23.96147677	     14.99392060	     13.02938625	     20.18075386	      2.79091927	    -25.90171456	    -13.82215695	      2.01038196	    -11.25087754	     -5.16469339	     -5.95431030	      1.02092941
      3.79000000	     -1.04353448	     -1.72929499	    180.73527959	     -0.05714462	      1.04866204	     -0.57229398	    -10.69037849	     -7.11274159	    -12.60600451	    -25.42730132	     13.60097374	     14.26219537	     19.55700897	      3.53793724	    -25.63554966	    -13.68026744	      1.52725611	    -11.85125658	     -4.86672876	     -6.35138735	      1.08279941
      3.80000000	     -0.98361685	     -2.06957296	    181.12449908	     -0.06772355	      1.04983194	     -0.56823776	    -10.30974908	     -7.70353945	    -11.89755039	    -27.10418535	     11.98220268	     15.40647805	     18.95131645	      4.28252935	    -25.17653754	    -13.51142082	      1.21397071	    -12.41224107	     -4.56189871	     -6.69674493	      1.15490935
      3.81000000	     -0.91760593	     -2.31917770	    181.55536224	     -0.07810858	      1.05116505	     -0.56402000	     -9.77323622	     -8.17139892	    -11.00507341	    -28.96337714	     10.10088242	     16.44189355	     18.37109897	      4.94853663	    -24.54027241	    -13.36852130	      1.02627132	    -12.93889592	     -4.28584672	     -6.93277662	      1.22028678
      3.82000000	     -0.84752255	     -2.48364093	    182.01677374	     -0.08827732	      1.05256121	     -0.55971163	     -9.07219442	     -8.51388407	     -9.94082644	    -31.00283249	      7.99629212	     17.28173522	     17.82957282	      5.52150647	    -23.78916775	    -13.28450383	      0.98557291	    -13.41378551	     -4.04337841	     -7.07166675	      1.27765021
      3.83000000	     -0.77861566	     -2.58163299	    182.50742395	     -0.09820782	      1.05394119	     -0.55536287	     -8.21569515	     -8.73632154	     -8.72338982	    -33.20223845	      5.72063702	     17.86007116	     17.33194330	      6.01021135	    -22.96692439	    -13.27910053	      1.06702550	    -13.83022892	     -3.84542012	     -7.13995159	      1.31621753
      3.84000000	     -0.72502948	     -2.63717058	    183.02345357	     -0.10788305	      1.05522797	     -0.55100719	     -7.22112294	     -8.86640981	     -7.42863794	    -35.54927115	      3.37766772	     18.16044292	     16.86229200	      6.43554837	    -22.11720910	    -13.34675567	      1.24924357	    -14.20191613	     -3.71163302	     -7.16536023	      1.34033586
      3.85000000	     -0.68345967	     -2.68623465	    183.56621290	     -0.11730735	      1.05635733	     -0.54667634	     -6.10790439	     -8.93247546	     -6.08189180	    -38.00313095	      1.09134117	     18.21420079	     16.42064929	      6.83451538	    -21.27257076	    -13.48090222	      1.49129837	    -14.55207989	     -3.63775661	     -7.19351455	      1.33002694
      3.86000000	     -0.65512861	     -2.75562369	    184.13959983	     -0.12648399	      1.05727864	     -0.54235523	     -4.90024390	     -8.97097882	     -4.75060479	    -40.52343861	     -0.97644904	     18.06368519	     15.99631748	      7.24053848	    -20.45046369	    -13.66721890	      1.78594622	    -14.90527115	     -3.62378227	     -7.25084415	      1.28855977
      3.87000000	     -0.66112380	     -2.87102761	    184.74148943	     -0.13545648	      1.05802730	     -0.53804181	     -3.65536245	     -9.00944768	     -3.45643541	    -43.05036948	     -2.67440200	     17.78644725	     15.53623093	      7.68579825	    -19.67326742	    -13.85346834	      2.10455893	    -15.23673150	     -3.68581974	     -7.35838722	      1.17037204
      3.88000000	     -0.69852730	     -3.04063300	    185.38542109	     -0.14422289	      1.05860410	     -0.53369686	     -2.39612952	     -9.07334523	     -2.25753413	    -45.53842218	     -3.87430570	     17.47216931	     15.03925233	      8.18430796	    -18.91673405	    -14.04282827	      2.45430698	    -15.56707664	     -3.81904954	     -7.52349000	      1.00340522
      3.89000000	     -0.75549450	     -3.25382123	    186.07125681	     -0.15276912	      1.05903056	     -0.52928599	     -1.13079675	     -9.15308951	     -1.13427775	    -47.93710827	     -4.52395130	     17.16417602	     14.50785454	      8.72996135	    -18.16804005	    -14.21861931	      2.83407533	    -15.91113027	     -4.00324839	     -7.72213868	      0.78084672
      3.90000000	     -0.86428480	     -3.54187329	    186.81502393	     -0.16115540	      1.05943266	     -0.52476446	      0.07310822	     -9.29361946	     -0.12091304	    -50.19838103	     -4.68108029	     16.96216165	     13.87315683	      9.35898985	    -17.41559217	    -14.33541302	      3.20057004	    -16.15964618	     -4.27191971	     -7.98481138	      0.46743012
      3.91000000	     -0.93041577	     -3.81063393	    187.59998110	     -0.16932276	      1.05971176	     -0.52020193	      1.33053845	     -9.38902140	      0.85212372	    -52.30554655	     -4.41979047	     16.70528981	     13.26119025	      9.97240298	    -16.63374681	    -14.42218949	      3.56699026	    -16.49607301	     -4.49845769	     -8.21841464	      0.12673345
      3.92000000	     -1.03025971	     -4.11116441	    188.45528601	     -0.17732672	      1.06004305	     -0.51549512	      2.51868411	     -9.50281408	      1.73844462	    -54.21627551	     -3.85036951	     16.49701329	     12.55900981	     10.62529803	    -15.79404687	    -14.44535476	      3.92471643	    -16.72739231	     -4.77716202	     -8.46393609	     -0.28729495
      3.93000000	     -1.11749077	     -4.39159908	    189.37174239	     -0.18515268	      1.06038983	     -0.51069289	      3.69384740	     -9.57752369	      2.57383026	    -55.92437032	     -3.11263038	     16.23928256	     11.83113898	     11.25879894	    -14.89229567	    -14.42221801	      4.26619601	    -16.93071670	     -5.04213221	     -8.67305154	     -0.74583627
      3.94000000	     -1.19941933	     -4.64143743	    190.34705192	     -0.19280641	      1.06078115	     -0.50580156	      4.84302059	     -9.60168810	      3.36696734	    -57.42091518	     -2.30321254	     15.94120569	     11.07875449	     11.85485623	    -13.93477153	    -14.37014491	      4.60449128	    -17.09004338	     -5.30057314	     -8.83447141	     -1.23685829
      3.95000000	     -1.25628487	     -4.82969933	    191.37195502	     -0.20028274	      1.06118750	     -0.50084875	      5.99570547	     -9.54730891	      4.12069204	    -58.70781099	     -1.53713905	     15.36873360	     10.33427629	     12.38291149	    -12.88462269	    -14.29648884	      4.92568387	    -17.26972883	     -5.51868688	     -8.92430017	     -1.70784698
      3.96000000	     -1.31090721	     -4.98577155	    192.44071513	     -0.20762745	      1.06165664	     -0.49581763	      7.11610234	     -9.44662629	      4.84951675	    -59.78432299	     -0.85150329	     14.85960602	      9.55473473	     12.86856706	    -11.75820796	    -14.17453608	      5.21533630	    -17.36184531	     -5.72388001	     -8.96922551	     -2.18521032
      3.97000000	     -1.35867387	     -5.10009630	    193.53520896	     -0.21484406	      1.06213767	     -0.49074656	      8.21678290	     -9.29386366	      5.55345587	    -60.66227658	     -0.22422304	     14.18196551	      8.77221898	     13.29123273	    -10.60659687	    -14.04588313	      5.52642527	    -17.43941790	     -5.90645495	     -8.96535372	     -2.63460995
      3.98000000	     -1.39331417	     -5.18511488	    194.65533620	     -0.22193966	      1.06261895	     -0.48561681	      9.30367992	     -9.11227443	      6.23003377	    -61.35039087	      0.32003945	     13.45450252	      7.98361284	     13.66827571	     -9.41663101	    -13.89185224	      5.81775094	    -17.49104896	     -6.06369995	     -8.92780358	     -3.05993971
      3.99000000	     -1.41197719	     -5.24787720	    195.79212183	     -0.22892550	      1.06307801	     -0.48044192	     10.38076544	     -8.91494256	      6.88080324	    -61.85854457	      0.80619088	     12.67042992	      7.19472057	     14.00508023	     -8.20290406	    -13.71728510	      6.09678533	    -17.52732655	     -6.19380463	     -8.86908996	     -3.45288840
      4.00000000	     -1.41169318	     -5.29320545	    196.94019408	     -0.23580220	      1.06350186	     -0.47522844	     11.45225005	     -8.71328803	      7.50241931	    -62.19375547	      1.25475100	     11.82062318	      6.40869124	     14.30611864	     -6.98048918	    -13.51974200	      6.36189089	    -17.55308369	     -6.29575503	     -8.79895476	     -3.81531542
      4.01000000	     -1.39195467	     -5.32361333	    198.09565089	     -0.24256990	      1.06387713	     -0.46998033	     12.51977915	     -8.51554282	      8.09196849	    -62.36476023	      1.68330269	     10.93163958	      5.63411722	     14.57340058	     -5.75939917	    -13.31145229	      6.60915382	    -17.57010103	     -6.37052610	     -8.72207366	     -4.14759668
